<svg xmlns="http://www.w3.org/2000/svg" width="82" height="105" viewBox="0 0 82 105">
  <defs>
    <linearGradient id="linearGradient-3" x1="46.749" x2="31.568" y1="94.389" y2="103.556" gradientUnits="userSpaceOnUse">
      <stop offset="0" stop-color="rgb(247,131,97)"/>
      <stop offset="1" stop-color="rgb(245,75,100)"/>
    </linearGradient>
  </defs>
  <g>
    <path fill="rgb(255,255,255)" fill-rule="evenodd" d="M49.99787903 5.40969849c.0218811-.49586487-.1253357-.99546814-.44145203-1.43981934C47.77163696 1.51004028 44.5169983 0 41 0c-3.5169983 0-6.77163696 1.51004028-8.556427 3.96987915-.30097962.42308044-.44883728.8962555-.44342041 1.36860657C19.79008484 9.03166199 10.5692749 19.98999023 9.69174194 33.46905518l-2.09840393 30.972229c-.06904602 1.05291748-.4009552 2.07162476-.965271 2.96273804L.98335267 76.31326294C-.24928284 78.25393677-.3285675 80.71282959.776474 82.7290802s3.2190094 3.26982117 5.51585388 3.27088928h69.39434815c2.30059814.00662232 4.42156982-1.24395752 5.53179931-3.26165771 1.11021424-2.01773072 1.03282166-4.48118592-.20184326-6.42504883l-5.70767212-8.97227478c-.5643158-.89111328-.89620972-1.90983582-.965271-2.96273804L72.3711853 34.26753235c-.71159363-13.59611511-9.86535644-24.95358277-22.37330627-28.85783386z"/>
    <path fill="url(#linearGradient-3)" fill-rule="evenodd" d="M47.63513338 93c1.56804452.01573806 3.00918457.79009197 3.7857319 2.03415087.77654731 1.2440589.7718654 2.7709666-.01229893 4.01103499C49.02884915 102.73494599 44.68933185 105 40 105c-4.68933186 0-9.02884915-2.265054-11.40856635-5.95481414-.78416433-1.24006839-.78884624-2.76697609-.01229892-4.011035.77654732-1.2440589 2.21768737-2.0184128 3.78573189-2.03415086h15.27026676z"/>
  </g>
</svg>
