<?xml version="1.0" encoding="utf-8"?>
<!-- Generator: Adobe Illustrator 24.1.2, SVG Export Plug-In . SVG Version: 6.00 Build 0)  -->
<svg version="1.1" id="Calque_1" xmlns="http://www.w3.org/2000/svg" xmlns:xlink="http://www.w3.org/1999/xlink" x="0px" y="0px"
	 viewBox="0 0 138.4 100.92" style="enable-background:new 0 0 138.4 100.92;" xml:space="preserve">
<style type="text/css">
	.st0{fill:none;stroke:#FFFFFF;stroke-width:2.5;stroke-linejoin:round;stroke-miterlimit:10;}
	.st1{fill:none;stroke:#FFFFFF;stroke-width:2.5;stroke-miterlimit:10;}
</style>
<path class="st0" d="M55.3,50.8l-13.64,0.16c-1.35,0.02-2.61,0.67-3.4,1.76L26.08,69.65V55.23c0-2.34-1.9-4.24-4.24-4.24h-1.79
	c-3.02,0-5.46-2.45-5.46-5.46V7.17c0-3.02,2.45-5.46,5.46-5.46h57.59c3.02,0,5.46,2.45,5.46,5.46v22.64"/>
<path class="st1" d="M112.32,97.75V83.33c0-2.34,1.9-4.24,4.24-4.24h1.79c3.02,0,5.46-2.45,5.46-5.46V35.27
	c0-3.02-2.45-5.46-5.46-5.46H60.76c-3.02,0-5.46,2.45-5.46,5.46v37.91c0,2.99,2.41,5.43,5.4,5.46l36.04,0.41
	c1.35,0.02,2.61,0.67,3.4,1.76L112.32,97.75z"/>
</svg>
