<svg xmlns="http://www.w3.org/2000/svg" xmlns:xlink="http://www.w3.org/1999/xlink" width="30" height="30" viewBox="0 0 30 30">
  <defs>
    <rect id="rect-1" width="30" height="30" x="0" y="0"/>
    <path id="path-2" fill-rule="evenodd" d="M17.25 3.75h-4.5c-4.96723509 0-9 4.03276491-9 9v4.5c0 4.96723557 4.03276491 9 9 9h4.5c4.96723557 0 9-4.03276443 9-9v-4.5c0-4.96723509-4.03276443-9-9-9zm3.66044617 7.24111652c-.48815537-.48815536-1.2796135-.48815536-1.76776886 0l-6.61611557 6.61611653-2.26767826-2.26767826c-.48815537-.48815537-1.2796116-.48815537-1.76776696 0-.48815536.48815536-.48815536 1.27961254 0 1.7677679l3.15156174 3.15156174c.48815537.48815536 1.27961159.48815536 1.76776695 0l7.50000096-7.50000095c.48815536-.48815537.48815536-1.2796116 0-1.76776696z"/>
    <linearGradient id="linearGradient-3" x1="21.328" x2="7.095" y1="6.354" y2="23.542" gradientUnits="userSpaceOnUse">
      <stop offset="0" stop-color="rgb(247,131,97)"/>
      <stop offset="1" stop-color="rgb(245,75,100)"/>
    </linearGradient>
    <mask id="mask-4" maskContentUnits="userSpaceOnUse" maskUnits="userSpaceOnUse">
      <rect width="30" height="30" x="0" y="0" fill="black"/>
      <use fill="white" xlink:href="#path-2"/>
    </mask>
  </defs>
  <g>
    <use fill="url(#linearGradient-3)" xlink:href="#path-2"/>
    <g mask="url(#mask-4)"/>
  </g>
</svg>
