<?xml version="1.0" encoding="utf-8"?>
<!-- Generator: Adobe Illustrator 24.1.2, SVG Export Plug-In . SVG Version: 6.00 Build 0)  -->
<svg version="1.1" id="Calque_1" xmlns="http://www.w3.org/2000/svg" xmlns:xlink="http://www.w3.org/1999/xlink" x="0px" y="0px"
	 viewBox="0 0 138.4 100.92" style="enable-background:new 0 0 138.4 100.92;" xml:space="preserve">
<style type="text/css">
	.st0{fill:none;stroke:url(#SVGID_1_);stroke-width:2.5;stroke-linecap:round;stroke-miterlimit:10;}
	.st1{fill:none;stroke:url(#SVGID_2_);stroke-width:2.5;stroke-linecap:round;stroke-miterlimit:10;}
	.st2{fill:none;stroke:url(#SVGID_3_);stroke-width:2.5;stroke-linecap:round;stroke-miterlimit:10;}
</style>
<g>
	<linearGradient id="SVGID_1_" gradientUnits="userSpaceOnUse" x1="64.1252" y1="50.4625" x2="81.8464" y2="50.4625">
		<stop  offset="0" style="stop-color:#EAAA4D"/>
		<stop  offset="1" style="stop-color:#E94A2C"/>
	</linearGradient>
	<circle class="st0" cx="72.99" cy="50.46" r="7.61"/>
	<linearGradient id="SVGID_2_" gradientUnits="userSpaceOnUse" x1="43.3634" y1="50.4625" x2="102.6083" y2="50.4625">
		<stop  offset="0" style="stop-color:#EAAA4D"/>
		<stop  offset="1" style="stop-color:#E94A2C"/>
	</linearGradient>
	<path class="st1" d="M94.31,31.74c4.39,5,7.05,11.55,7.05,18.72c0,15.67-12.7,28.37-28.37,28.37s-28.37-12.7-28.37-28.37
		s12.7-28.37,28.37-28.37"/>
	<linearGradient id="SVGID_3_" gradientUnits="userSpaceOnUse" x1="24.059" y1="50.4625" x2="121.9126" y2="50.4625">
		<stop  offset="0" style="stop-color:#EAAA4D"/>
		<stop  offset="1" style="stop-color:#E94A2C"/>
	</linearGradient>
	<path class="st2" d="M109.49,19.8c6.97,8.29,11.17,18.99,11.17,30.67c0,26.33-21.35,47.68-47.68,47.68S25.31,76.79,25.31,50.46
		S46.65,2.79,72.99,2.79v40.07"/>
</g>
</svg>
