<svg xmlns="http://www.w3.org/2000/svg" xmlns:xlink="http://www.w3.org/1999/xlink" width="375" height="812" viewBox="0 0 375 812">
  <defs>
    <rect id="rect-1" width="375" height="812" x="0" y="0"/>
    <rect id="rect-4" width="28" height="25" x="0" y="0"/>
    <path id="path-5" fill-rule="evenodd" d="M12.99339795 17.96312781c.39423363.38609295.3999633 1.00646193.00671635 1.39158857-.3905243.3824602-1.01878006.38726804-1.41835834-.00405918L5.2971523 13.19582678c-.39281339-.38470202-.39957828-1.00180205 0-1.39312928l6.28460367-6.15483041c.39281339-.38470203 1.02511138-.38918583 1.41835834-.00405919.39052429.3824602.391863 1.00123964-.00671635 1.39158857l-4.5790701 4.48451507h13.58324627c.55368765 0 1.00254018.43469928 1.00254018.9793506 0 .5408804-.45251783.9793506-1.00254018.9793506H8.41432786l4.57907009 4.48451507z"/>
    <mask id="mask-6" maskContentUnits="userSpaceOnUse" maskUnits="userSpaceOnUse">
      <rect width="375" height="812" x="0" y="0" fill="black"/>
      <use fill="white" xlink:href="#path-5"/>
    </mask>
    <rect id="rect-7" width="375" height="40" x="0" y="0"/>
    <rect id="rect-8" width="375" height="40" x="0" y="0" rx="0" ry="0"/>
    <mask id="mask-9" maskContentUnits="userSpaceOnUse" maskUnits="userSpaceOnUse">
      <rect width="375" height="812" x="0" y="0" fill="black"/>
      <use fill="white" xlink:href="#rect-8"/>
    </mask>
    <rect id="rect-14" width="375" height="34" x="0" y="0"/>
    <rect id="rect-15" width="375" height="34" x="0" y="0" rx="0" ry="0"/>
    <mask id="mask-16" maskContentUnits="userSpaceOnUse" maskUnits="userSpaceOnUse">
      <rect width="375" height="812" x="0" y="0" fill="black"/>
      <use fill="white" xlink:href="#rect-15"/>
    </mask>
    <linearGradient id="linearGradient-23" x1="172.933" x2="62.871" y1="313.777" y2="332.111" gradientUnits="userSpaceOnUse">
      <stop offset="0" stop-color="rgb(247,131,97)"/>
      <stop offset="1" stop-color="rgb(245,75,100)"/>
    </linearGradient>
    <linearGradient id="linearGradient-26" x1="160.996" x2="59.789" y1="389.777" y2="408.111" gradientUnits="userSpaceOnUse">
      <stop offset="0" stop-color="rgb(247,131,97)"/>
      <stop offset="1" stop-color="rgb(245,75,100)"/>
    </linearGradient>
    <linearGradient id="linearGradient-29" x1="160.996" x2="59.789" y1="465.777" y2="484.111" gradientUnits="userSpaceOnUse">
      <stop offset="0" stop-color="rgb(247,131,97)"/>
      <stop offset="1" stop-color="rgb(245,75,100)"/>
    </linearGradient>
    <linearGradient id="linearGradient-32" x1="139.121" x2="55.626" y1="540.777" y2="559.111" gradientUnits="userSpaceOnUse">
      <stop offset="0" stop-color="rgb(247,131,97)"/>
      <stop offset="1" stop-color="rgb(245,75,100)"/>
    </linearGradient>
    <linearGradient id="linearGradient-35" x1="85.217" x2="45.367" y1="616.777" y2="635.111" gradientUnits="userSpaceOnUse">
      <stop offset="0" stop-color="rgb(247,131,97)"/>
      <stop offset="1" stop-color="rgb(245,75,100)"/>
    </linearGradient>
    <linearGradient id="linearGradient-38" x1="103.966" x2="48.936" y1="691.777" y2="710.111" gradientUnits="userSpaceOnUse">
      <stop offset="0" stop-color="rgb(247,131,97)"/>
      <stop offset="1" stop-color="rgb(245,75,100)"/>
    </linearGradient>
  </defs>
  <rect width="375" height="812" x="0" y="0" fill="rgb(36,42,55)" rx="0" ry="0"/>
  <text font-size="0" style="white-space:pre">
    <tspan x="62.62" y="167" fill="rgb(255,255,255)" font-family="Avenir" font-size="17" font-weight="400" style="white-space:pre;text-transform:none" letter-spacing="-.41">Bienvenue dans le graph musical !</tspan> <tspan x="18.5" y="189" fill="rgb(255,255,255)" font-family="Avenir" font-size="17" font-weight="400" style="white-space:pre;text-transform:none" letter-spacing="-.41">Retrouve les styles de musique que tu écoutes </tspan> <tspan x="112.368" y="211" fill="rgb(255,255,255)" font-family="Avenir" font-size="17" font-weight="400" style="white-space:pre;text-transform:none" letter-spacing="-.41">et qui te définissent.</tspan>
  </text>
  <g>
    <rect width="375" height="151" x="0" y="0" fill="rgb(36,42,55)" rx="0" ry="0"/>
    <g transform="translate(15 47)">
      <use fill="rgb(255,255,255)" xlink:href="#path-5"/>
      <g mask="url(#mask-6)"/>
    </g>
    <g>
      <use fill="none" xlink:href="#rect-8"/>
      <g mask="url(#mask-9)">
        <text font-size="0" style="white-space:pre" transform="translate(19.8938992 12.72727273)">
          <tspan x="12.733" y="13.182" fill="rgb(255,255,255)" font-family="Arial" font-size="15" font-weight="400" style="white-space:pre;text-transform:none" letter-spacing="-.165">9:41</tspan>
        </text>
        <g transform="translate(293 13)">
          <g transform="translate(43 .60000038)">
            <path fill="rgb(255,255,255)" fill-opacity=".36" fill-rule="evenodd" d="M3.58943915.55999756h14.82112146c1.24812698 0 1.70072746.12995589 2.15702247.37398577.45629692.24403.81440163.60213399 1.05843163 1.0584302C21.8700447 2.44870995 22 2.90131043 22 4.14943694v4.32112122c0 1.24812603-.1299553 1.70072746-.3739853 2.15702343-.24402999.45629596-.6021347.81440067-1.05843162 1.05842971-.456295.24403-.90889549.37398625-2.15702247.37398625H3.58943915c-1.24812626 0-1.70072686-.12995625-2.15702319-.37398625-.45629626-.24402904-.81440025-.60213375-1.0584302-1.05842971C.12995587 10.17128563 0 9.7186842 0 8.47055817V4.14943695c0-1.2481265.12995586-1.70072699.37398577-2.15702343.24402994-.4562962.60213393-.8144002 1.0584302-1.0584302.45629632-.24402987.90889692-.37398576 2.15702318-.37398576zm0 1c-.98697853 0-1.3315351.0665369-1.68542432.25579893-.28202773.15083015-.49738574.36618817-.6482159.6482159C1.0665369 2.8179016 1 3.16245818 1 4.14943694v4.32112122c0 .98697853.0665369 1.33153534.25579894 1.6854248.15083015.28202725.36618816.49738503.64821589.6482153.35388922.18926239.6984458.25579929 1.68542432.25579929h14.82112146c.98697853 0 1.33153534-.0665369 1.6854248-.2557993.2820282-.15083026.49738503-.36618804.64821625-.64821529C20.93346214 9.80209351 21 9.4575367 21 8.47055817V4.14943695c0-.98697877-.06653786-1.33153534-.25579834-1.68542457-.15083122-.28202772-.36618805-.49738574-.64821625-.64821589-.35388946-.18926203-.69844627-.25579893-1.6854248-.25579893H3.58943915zM24.5 6.25c0 1.23657227-1.5 2-1.5 2v-4s1.5.76342773 1.5 2z"/>
            <path fill="rgb(255,255,255)" fill-rule="evenodd" d="M4 2.47666423h14c1.10383005 0 2 .89616995 2 2v3.66666666c0 1.10383005-.89616995 2-2 2H4c-1.10383005 0-2-.89616995-2-2V4.47666423c0-1.10383005.89616995-2 2-2z"/>
          </g>
          <path fill="rgb(255,255,255)" fill-rule="evenodd" d="M14.59999084 2.60000038c0-.55191493.44808484-1 1-1h1c.55191422 0 1 .44808507 1 1v8.69999981c0 .55191517-.44808578 1-1 1h-1c-.55191516 0-1-.44808483-1-1V2.6000004zM9.8999939 5.00000191c0-.55191517.44808483-1 1-1h1c.55191517 0 1 .44808483 1 1v6.30000305c0 .55191517-.44808483 1-1 1h-1c-.55191517 0-1-.44808483-1-1V5.0000019zM5.2999878 7.30000496c0-.55191517.44808482-1 1-1h1c.55191516 0 1 .44808483 1 1v4c0 .55191517-.44808484 1-1 1h-1c-.55191518 0-1-.44808483-1-1v-4zm-4.7999878 2c0-.55191517.44808495-1 1-1h1c.55191493 0 1 .44808483 1 1v2c0 .55191517-.44808507 1-1 1h-1c-.55191505 0-1-.44808483-1-1v-2z"/>
          <path fill="rgb(255,255,255)" fill-rule="evenodd" d="M30.3004303 3.69635987c2.23440552.00009775 4.38337707.85865093 6.00274658 2.39820886.12194061.11885929.31684875.11735964.43695068-.0033617l1.16566086-1.17641545c.0608139-.06123018.09471512-.14416885.09421158-.23046493-.00050354-.08629513-.03537369-.1688323-.09690094-.2293458-4.25032806-4.07330835-10.9556961-4.07330835-15.20602226 0-.06156922.06046915-.0964985.14298105-.09706307.22927618-.00057602.08629608.0332756.16925955.09403801.23053455l1.16600418 1.17641545c.1200142.12090397.31508065.12240457.43695069.0033617 1.61957359-1.53965855 3.7687931-2.39821386 6.00342369-2.39820886zm0 3.82738662c1.22766495-.0000763 2.41151428.45623875 3.32152557 1.28027725.1230812.11694908.31697083.11441422.43695069-.00571441l1.1643219-1.17641688c.0613098-.06170606.09532928-.14541578.0944519-.23240185-.00088501-.08698606-.03660202-.16998672-.09915924-.23043394-2.77116776-2.57774496-7.06267357-2.57774496-9.83382988 0-.06259918.06044722-.09831429.14348936-.09913063.23050309-.0008278.08701324.03331566.17071628.09475517.2323327l1.1639862 1.17641688c.11997414.12012863.31387139.1226635.43695069.00571441.90940666-.82349395 2.0923214-1.27976942 3.31917763-1.28027725zm2.33232116 2.57516003c.00178147.08722973-.03251266.17132854-.09477615.23244095l-2.01403236 2.0325117c-.05903816.0597334-.13952637.09335137-.22351265.09335137-.08399582 0-.16448212-.03361797-.22352219-.09335136l-2.01436424-2.03251171c-.06222534-.06115818-.09645844-.14528275-.09461403-.23251439.00184631-.08722972.039608-.16983223.1043644-.22830486 1.28623008-1.0878992 3.1700325-1.0878992 4.45626258 0 .06471634.05851936.10240937.14114857.10419464.2283783z"/>
        </g>
      </g>
    </g>
    <text font-size="0" style="white-space:pre">
      <tspan x="72.108" y="124" fill="rgb(255,255,255)" font-family="Avenir" font-size="34" font-weight="800" style="white-space:pre;text-transform:none" letter-spacing=".41">Graph musical</tspan>
    </text>
  </g>
  <g transform="translate(0 778)">
    <use fill="none" xlink:href="#rect-15"/>
    <g mask="url(#mask-16)">
      <path fill="rgb(255,255,255)" fill-rule="evenodd" d="M122.5 21h130c1.37978756 0 2.5 1.12021244 2.5 2.5s-1.12021244 2.5-2.5 2.5h-130c-1.37978756 0-2.5-1.12021244-2.5-2.5s1.12021244-2.5 2.5-2.5z"/>
    </g>
  </g>
  <g>
    <g>
      <text font-size="0" style="white-space:pre">
        <tspan x="16" y="915" fill="rgb(78,88,110)" font-family="Avenir" font-size="15" font-weight="400" style="white-space:pre;text-transform:none" letter-spacing="-.24">Love what happened here - James Blake</tspan>
      </text>
      <text font-size="0" style="white-space:pre">
        <tspan x="16" y="885" fill="rgb(255,255,255)" font-family="Avenir" font-size="15" font-weight="800" style="white-space:pre;text-transform:none" letter-spacing="-.24">Le morceau pour débuter la semaine ?</tspan>
      </text>
    </g>
    <g>
      <text font-size="0" style="white-space:pre">
        <tspan x="16" y="994" fill="rgb(78,88,110)" font-family="Avenir" font-size="15" font-weight="400" style="white-space:pre;text-transform:none" letter-spacing="-.24">Tash Sultana à Wollongong, Australie</tspan>
      </text>
      <text font-size="0" style="white-space:pre">
        <tspan x="16" y="964" fill="rgb(255,255,255)" font-family="Avenir" font-size="15" font-weight="800" style="white-space:pre;text-transform:none" letter-spacing="-.24">Quels ont été tes concerts les plus marquants ?</tspan>
      </text>
    </g>
    <rect width="298" height="1" x="39" y="855" fill="rgb(0,0,0)" fill-opacity=".5" rx="0" ry="0"/>
    <rect width="298" height="1" x="39" y="934" fill="rgb(0,0,0)" fill-opacity=".5" rx="0" ry="0"/>
    <rect width="298" height="1" x="34" y="1013" fill="rgb(0,0,0)" fill-opacity=".5" rx="0" ry="0"/>
  </g>
  <g>
    <g>
      <text font-size="0" style="white-space:pre">
        <tspan x="320" y="328" fill="rgb(255,255,255)" font-family="Avenir" font-size="17" font-weight="400" style="white-space:pre;text-transform:none" letter-spacing="-.41">20%</tspan>
      </text>
      <g>
        <g opacity=".2">
          <path fill="rgb(0,0,0)" fill-rule="evenodd" d="M39 311h271c1.10383005 0 2 .89616995 2 2v20c0 1.10383005-.89616995 2-2 2H39c-1.10383005 0-2-.89616995-2-2v-20c0-1.10383005.89616995-2 2-2z"/>
        </g>
        <path fill="url(#linearGradient-23)" fill-rule="evenodd" d="M39 311h170c1.10383005 0 2 .89616995 2 2v20c0 1.10383005-.89616995 2-2 2H39c-1.10383005 0-2-.89616995-2-2v-20c0-1.10383005.89616995-2 2-2z"/>
      </g>
    </g>
    <text font-size="0" style="white-space:pre">
      <tspan x="23" y="300" fill="rgb(255,255,255)" font-family="Avenir" font-size="17" font-weight="400" style="white-space:pre;text-transform:none" letter-spacing="-.41">Rap</tspan>
    </text>
  </g>
  <g>
    <g>
      <text font-size="0" style="white-space:pre">
        <tspan x="320" y="406" fill="rgb(255,255,255)" font-family="Avenir" font-size="17" font-weight="400" style="white-space:pre;text-transform:none" letter-spacing="-.41">16%</tspan>
      </text>
      <g>
        <g opacity=".2">
          <path fill="rgb(0,0,0)" fill-rule="evenodd" d="M39 387h272c1.10383005 0 2 .89616995 2 2v20c0 1.10383005-.89616995 2-2 2H39c-1.10383005 0-2-.89616995-2-2v-20c0-1.10383005.89616995-2 2-2z"/>
        </g>
        <path fill="url(#linearGradient-26)" fill-rule="evenodd" d="M38 387h156c1.10383005 0 2 .89616995 2 2v20c0 1.10383005-.89616995 2-2 2H38c-1.10383005 0-2-.89616995-2-2v-20c0-1.10383005.89616995-2 2-2z"/>
      </g>
    </g>
    <text font-size="0" style="white-space:pre">
      <tspan x="23" y="377" fill="rgb(255,255,255)" font-family="Avenir" font-size="17" font-weight="400" style="white-space:pre;text-transform:none" letter-spacing="-.41">Hip Hop</tspan>
    </text>
  </g>
  <g>
    <g>
      <text font-size="0" style="white-space:pre">
        <tspan x="320" y="480" fill="rgb(255,255,255)" font-family="Avenir" font-size="17" font-weight="400" style="white-space:pre;text-transform:none" letter-spacing="-.41">16%</tspan>
      </text>
      <g>
        <g opacity=".2">
          <path fill="rgb(0,0,0)" fill-rule="evenodd" d="M39 463h272c1.10383005 0 2 .89616995 2 2v20c0 1.10383005-.89616995 2-2 2H39c-1.10383005 0-2-.89616995-2-2v-20c0-1.10383005.89616995-2 2-2z"/>
        </g>
        <path fill="url(#linearGradient-29)" fill-rule="evenodd" d="M38 463h156c1.10383005 0 2 .89616995 2 2v20c0 1.10383005-.89616995 2-2 2H38c-1.10383005 0-2-.89616995-2-2v-20c0-1.10383005.89616995-2 2-2z"/>
      </g>
    </g>
    <text font-size="0" style="white-space:pre">
      <tspan x="23" y="454" fill="rgb(255,255,255)" font-family="Avenir" font-size="17" font-weight="400" style="white-space:pre;text-transform:none" letter-spacing="-.41">Indie Soul</tspan>
    </text>
  </g>
  <g>
    <g>
      <text font-size="0" style="white-space:pre">
        <tspan x="320" y="555" fill="rgb(255,255,255)" font-family="Avenir" font-size="17" font-weight="400" style="white-space:pre;text-transform:none" letter-spacing="-.41">12%</tspan>
      </text>
      <g>
        <g opacity=".2">
          <path fill="rgb(0,0,0)" fill-rule="evenodd" d="M39 538h272c1.10383005 0 2 .89616995 2 2v20c0 1.10383005-.89616995 2-2 2H39c-1.10383005 0-2-.89616995-2-2v-20c0-1.10383005.89616995-2 2-2z"/>
        </g>
        <path fill="url(#linearGradient-32)" fill-rule="evenodd" d="M38 538h128c1.10383005 0 2 .89616995 2 2v20c0 1.10383005-.89616995 2-2 2H38c-1.10383005 0-2-.89616995-2-2v-20c0-1.10383005.89616995-2 2-2z"/>
      </g>
    </g>
    <text font-size="0" style="white-space:pre">
      <tspan x="23" y="529" fill="rgb(255,255,255)" font-family="Avenir" font-size="17" font-weight="400" style="white-space:pre;text-transform:none" letter-spacing="-.41">Micro House</tspan>
    </text>
  </g>
  <g>
    <g>
      <text font-size="0" style="white-space:pre">
        <tspan x="320" y="632" fill="rgb(255,255,255)" font-family="Avenir" font-size="17" font-weight="400" style="white-space:pre;text-transform:none" letter-spacing="-.41">8%</tspan>
      </text>
      <g>
        <g opacity=".2">
          <path fill="rgb(0,0,0)" fill-rule="evenodd" d="M39 614h272c1.10383005 0 2 .89616995 2 2v20c0 1.10383005-.89616995 2-2 2H39c-1.10383005 0-2-.89616995-2-2v-20c0-1.10383005.89616995-2 2-2z"/>
        </g>
        <path fill="url(#linearGradient-35)" fill-rule="evenodd" d="M38 614h59c1.10383005 0 2 .89616995 2 2v20c0 1.10383005-.89616995 2-2 2H38c-1.10383005 0-2-.89616995-2-2v-20c0-1.10383005.89616995-2 2-2z"/>
      </g>
    </g>
    <text font-size="0" style="white-space:pre">
      <tspan x="23" y="604" fill="rgb(255,255,255)" font-family="Avenir" font-size="17" font-weight="400" style="white-space:pre;text-transform:none" letter-spacing="-.41">Pop urbaine</tspan>
    </text>
  </g>
  <g>
    <g>
      <text font-size="0" style="white-space:pre">
        <tspan x="320" y="707" fill="rgb(255,255,255)" font-family="Avenir" font-size="17" font-weight="400" style="white-space:pre;text-transform:none" letter-spacing="-.41">10%</tspan>
      </text>
      <g>
        <g opacity=".2">
          <path fill="rgb(0,0,0)" fill-rule="evenodd" d="M39 689h272c1.10383005 0 2 .89616995 2 2v20c0 1.10383005-.89616995 2-2 2H39c-1.10383005 0-2-.89616995-2-2v-20c0-1.10383005.89616995-2 2-2z"/>
        </g>
        <path fill="url(#linearGradient-38)" fill-rule="evenodd" d="M38 689h83c1.10383005 0 2 .89616995 2 2v20c0 1.10383005-.89616995 2-2 2H38c-1.10383005 0-2-.89616995-2-2v-20c0-1.10383005.89616995-2 2-2z"/>
      </g>
    </g>
    <text font-size="0" style="white-space:pre">
      <tspan x="23" y="680" fill="rgb(255,255,255)" font-family="Avenir" font-size="17" font-weight="400" style="white-space:pre;text-transform:none" letter-spacing="-.41">Jazz</tspan>
    </text>
  </g>
</svg>
