<svg xmlns="http://www.w3.org/2000/svg" xmlns:xlink="http://www.w3.org/1999/xlink" width="43" height="43" viewBox="0 0 43 43">
  <defs>
    <path id="path-1" fill-rule="evenodd" d="M21.5 10C27.84702278 10 33 15.15297722 33 21.5S27.84702278 33 21.5 33 10 27.84702278 10 21.5 15.15297722 10 21.5 10z"/>
    <filter id="filter-2" width="200%" height="200%" x="-50%" y="-50%" color-interpolation-filters="sRGB" filterUnits="userSpaceOnUse">
      <feOffset dx="0" dy="0" in="SourceAlpha" result="shadow-1-feOffset-shadow"/>
      <feGaussianBlur in="shadow-1-feOffset-shadow" result="shadow-1-feGaussianBlur-shadow" stdDeviation="6.024"/>
      <feColorMatrix in="shadow-1-feGaussianBlur-shadow" result="shadow-1-feColorMatrix-shadow" type="matrix" values="0 0 0 0 0.0392156862745098  0 0 0 0 0.12156862745098039  0 0 0 0 0.26666666666666666  0 0 0 0.1 0"/>
    </filter>
    <linearGradient id="linearGradient-4" x1="24.812" x2="18.487" y1="18.157" y2="25.796" gradientUnits="userSpaceOnUse">
      <stop offset="0" stop-color="rgb(247,131,97)"/>
      <stop offset="1" stop-color="rgb(245,75,100)"/>
    </linearGradient>
  </defs>
  <g>
    <g>
      <use fill="black" stroke="black" stroke-opacity="0" stroke-width="0" filter="url(#filter-2)" xlink:href="#path-1"/>
      <use fill="rgb(255,255,255)" xlink:href="#path-1"/>
    </g>
    <path fill="url(#linearGradient-4)" fill-rule="evenodd" d="M19.74571429 17C18.20607143 17 17 18.31247836 17 19.98818731c0 1.93120166 1.50071429 3.5384201 3.62035714 5.59852245C21.09964286 26.05267613 21.56392857 26.52826196 22 27c.43964286-.47520105.90357143-.9504021 1.37928571-1.41290546C25.49928571 23.52660741 27 21.91900419 27 19.98818731 27 18.31247836 25.79392857 17 24.25428571 17c-.73107142 0-1.46357142.31667244-2.00964285.86882912L22 18.11624149l-.24428571-.24741237C21.2092857 17.31667244 20.4767857 17 19.74571429 17"/>
  </g>
</svg>
