<?xml version="1.0" encoding="utf-8"?>
<!-- Generator: Adobe Illustrator 24.1.2, SVG Export Plug-In . SVG Version: 6.00 Build 0)  -->
<svg version="1.1" id="Calque_1" xmlns="http://www.w3.org/2000/svg" xmlns:xlink="http://www.w3.org/1999/xlink" x="0px" y="0px"
	 viewBox="0 0 102.05 102.05" style="enable-background:new 0 0 102.05 102.05;" xml:space="preserve">
<style type="text/css">
	.st0{fill:none;stroke:url(#SVGID_1_);stroke-width:2.5;stroke-linecap:round;stroke-miterlimit:10;}
	.st1{fill:none;stroke:url(#SVGID_2_);stroke-width:2.5;stroke-linecap:round;stroke-miterlimit:10;}
	.st2{fill:#FFFFFF;}
	.st3{fill:url(#SVGID_3_);}
	.st4{fill:url(#SVGID_4_);}
</style>
<g>
	<path class="st2" d="M13.48,97.97l27.3-27.13l-2.47-2.48l5.77-5.74c5.87,4.88,13.41,7.82,21.63,7.85
		c18.79,0.06,34.13-15.18,34.19-33.98C99.96,17.7,84.72,2.36,65.93,2.3C47.13,2.24,31.8,17.49,31.74,36.28
		c-0.03,8.07,2.77,15.49,7.46,21.35l-5.81,5.77l-2.46-2.48L3.62,88.05c-1.37,1.36-2.06,3.15-2.06,4.94
		c-0.01,1.79,0.67,3.58,2.03,4.95C6.31,100.68,10.74,100.69,13.48,97.97z M65.9,9.3c14.94,0.05,27.05,12.24,27.01,27.17
		c-0.05,14.94-12.24,27.05-27.18,27.01S38.68,51.24,38.73,36.3C38.78,21.36,50.97,9.25,65.9,9.3z"/>
	<path class="st2" d="M78.46,49.02c-6.54,6.5-15.09,9.4-22.65,8.46c2.85,1.22,5.98,1.91,9.28,1.92
		c13.08,0.04,23.72-10.53,23.76-23.61c0.01-3.18-0.61-6.21-1.74-8.98C87.86,34.28,84.89,42.63,78.46,49.02z"/>
</g>
</svg>
