<?xml version="1.0" encoding="utf-8"?>
<!-- Generator: Adobe Illustrator 24.1.2, SVG Export Plug-In . SVG Version: 6.00 Build 0)  -->
<svg version="1.1" id="Calque_1" xmlns="http://www.w3.org/2000/svg" xmlns:xlink="http://www.w3.org/1999/xlink" x="0px" y="0px"
	 viewBox="0 0 277.05 274.57" style="enable-background:new 0 0 277.05 274.57;" xml:space="preserve">
<style type="text/css">
	.st0{fill:url(#SVGID_1_);}
	.st1{fill:url(#SVGID_2_);}
	.st2{fill:url(#SVGID_3_);}
	.st3{fill:url(#SVGID_4_);}
	.st4{fill:url(#SVGID_5_);}
	.st5{fill:url(#SVGID_6_);}
	.st6{fill:url(#SVGID_7_);}
</style>
<g>
	<linearGradient id="SVGID_1_" gradientUnits="userSpaceOnUse" x1="13.9986" y1="188.0904" x2="13.6718" y2="88.1187">
		<stop  offset="0" style="stop-color:#EAAA4D"/>
		<stop  offset="1" style="stop-color:#E94A2C"/>
	</linearGradient>
	<path class="st0" d="M13.84,188.09c-4.25,0-7.7-3.45-7.7-7.7V95.81c0-4.25,3.45-7.7,7.7-7.7s7.7,3.45,7.7,7.7v84.58
		C21.53,184.65,18.09,188.09,13.84,188.09z"/>
	<linearGradient id="SVGID_2_" gradientUnits="userSpaceOnUse" x1="56.3353" y1="229.6084" x2="55.7322" y2="45.0601">
		<stop  offset="0" style="stop-color:#EAAA4D"/>
		<stop  offset="1" style="stop-color:#E94A2C"/>
	</linearGradient>
	<path class="st1" d="M56.03,229.61c-4.25,0-7.7-3.45-7.7-7.7V52.75c0-4.25,3.45-7.7,7.7-7.7s7.7,3.45,7.7,7.7v169.16
		C63.73,226.16,60.28,229.61,56.03,229.61z"/>
	<linearGradient id="SVGID_3_" gradientUnits="userSpaceOnUse" x1="98.6721" y1="273.4373" x2="97.785" y2="2.0015">
		<stop  offset="0" style="stop-color:#EAAA4D"/>
		<stop  offset="1" style="stop-color:#E94A2C"/>
	</linearGradient>
	<path class="st2" d="M98.23,273.44c-4.25,0-7.7-3.45-7.7-7.7V9.7c0-4.25,3.45-7.7,7.7-7.7s7.7,3.45,7.7,7.7v256.05
		C105.92,269.99,102.48,273.44,98.23,273.44z"/>
	<linearGradient id="SVGID_4_" gradientUnits="userSpaceOnUse" x1="140.7249" y1="229.6084" x2="140.1218" y2="45.0601">
		<stop  offset="0" style="stop-color:#EAAA4D"/>
		<stop  offset="1" style="stop-color:#E94A2C"/>
	</linearGradient>
	<path class="st3" d="M140.42,229.61c-4.25,0-7.7-3.45-7.7-7.7V52.75c0-4.25,3.45-7.7,7.7-7.7c4.25,0,7.7,3.45,7.7,7.7v169.16
		C148.12,226.16,144.67,229.61,140.42,229.61z"/>
	<linearGradient id="SVGID_5_" gradientUnits="userSpaceOnUse" x1="182.7815" y1="188.0904" x2="182.4548" y2="88.1187">
		<stop  offset="0" style="stop-color:#EAAA4D"/>
		<stop  offset="1" style="stop-color:#E94A2C"/>
	</linearGradient>
	<path class="st4" d="M182.62,188.09c-4.25,0-7.7-3.45-7.7-7.7V95.81c0-4.25,3.45-7.7,7.7-7.7s7.7,3.45,7.7,7.7v84.58
		C190.31,184.65,186.87,188.09,182.62,188.09z"/>
	<linearGradient id="SVGID_6_" gradientUnits="userSpaceOnUse" x1="225.1183" y1="229.6084" x2="224.5152" y2="45.0601">
		<stop  offset="0" style="stop-color:#EAAA4D"/>
		<stop  offset="1" style="stop-color:#E94A2C"/>
	</linearGradient>
	<path class="st5" d="M224.82,229.61c-4.25,0-7.7-3.45-7.7-7.7V52.75c0-4.25,3.45-7.7,7.7-7.7c4.25,0,7.7,3.45,7.7,7.7v169.16
		C232.51,226.16,229.07,229.61,224.82,229.61z"/>
	<linearGradient id="SVGID_7_" gradientUnits="userSpaceOnUse" x1="267.1749" y1="188.0904" x2="266.8482" y2="88.1187">
		<stop  offset="0" style="stop-color:#EAAA4D"/>
		<stop  offset="1" style="stop-color:#E94A2C"/>
	</linearGradient>
	<path class="st6" d="M267.01,188.09c-4.25,0-7.7-3.45-7.7-7.7V95.81c0-4.25,3.45-7.7,7.7-7.7c4.25,0,7.7,3.45,7.7,7.7v84.58
		C274.71,184.65,271.26,188.09,267.01,188.09z"/>
</g>
</svg>
