<?xml version="1.0" encoding="utf-8"?>
<!-- Generator: Adobe Illustrator 24.1.2, SVG Export Plug-In . SVG Version: 6.00 Build 0)  -->
<svg version="1.1" id="Calque_1" xmlns="http://www.w3.org/2000/svg" xmlns:xlink="http://www.w3.org/1999/xlink" x="0px" y="0px"
	 viewBox="0 0 277.05 274.57" style="enable-background:new 0 0 277.05 274.57;" xml:space="preserve">
<style type="text/css">
	.st0{fill:#FFFFFF;}
</style>
<path class="st0" d="M269.34,3.45c-3.17-2.88-7.78-4.03-12.1-3.17L81.81,29.66c-7.2,1.15-12.39,7.2-12.39,14.4v136.83
	c-5.76-2.3-12.1-3.74-18.72-3.74c-26.5,0-48.11,21.6-48.11,48.11s21.6,48.11,48.11,48.11s48.11-21.6,48.11-48.11V56.74l145.76-24.49
	V151.8c-5.76-2.3-12.1-3.74-18.72-3.74c-26.5,0-48.11,21.6-48.11,48.11s21.6,48.11,48.11,48.11s48.11-21.6,48.11-48.11V14.68
	C274.52,10.36,272.51,6.33,269.34,3.45z"/>
</svg>
