<?xml version="1.0" encoding="utf-8"?>
<!-- Generator: Adobe Illustrator 24.1.2, SVG Export Plug-In . SVG Version: 6.00 Build 0)  -->
<svg version="1.1" id="Calque_1" xmlns="http://www.w3.org/2000/svg" xmlns:xlink="http://www.w3.org/1999/xlink" x="0px" y="0px"
	 viewBox="0 0 274.57 274.57" style="enable-background:new 0 0 274.57 274.57;" xml:space="preserve">
<style type="text/css">
	.st0{fill:#E94A2C;}
	.st1{fill:none;stroke:#FFFFFF;stroke-width:2.5;stroke-linejoin:round;stroke-miterlimit:10;}
	.st2{fill:none;stroke:#FFFFFF;stroke-width:2.5;stroke-linecap:round;stroke-linejoin:round;stroke-miterlimit:10;}
</style>
<g>
	<g>
		<circle class="st0" cx="136.19" cy="138.34" r="137.28"/>
	</g>
	<g>
		<path class="st1" d="M157.15,189.51c0,11.67-9.46,21.13-21.13,21.13s-21.13-9.46-21.13-21.13"/>
		<path class="st1" d="M136.21,189.75h66.12c3.38,0,6.11-2.74,6.11-6.11v-4.82c0-4.88-2.78-9.34-7.17-11.48l0,0
			c-5.19-2.54-8.51-7.79-8.56-13.57c-0.11-12.47-0.28-33.48-0.28-38.6c0-7.4-7.66-49.12-56.22-49.12h-0.03
			c-48.56,0-56.22,41.72-56.22,49.12c0,5.11-0.17,26.12-0.28,38.6c-0.05,5.78-3.36,11.03-8.56,13.57l0,0
			c-4.39,2.14-7.17,6.6-7.17,11.48v4.82c0,3.38,2.74,6.11,6.11,6.11h66.12H136.21z"/>
	</g>
	<path class="st2" d="M181.27,105.87c-5.09-11.72-15.61-25.49-36.47-30.08"/>
	<path class="st2" d="M117.98,208.91c-3.63-2.85-6.31-6.87-7.46-11.49"/>
	<path class="st2" d="M160.12,199.66c-1.37,3.66-3.73,6.84-6.76,9.22"/>
</g>
</svg>
