<svg id="Calque_1" data-name="Calque 1" xmlns="http://www.w3.org/2000/svg" viewBox="0 0 102.05 102.05"><defs><style>.cls-1{fill:#fff;}</style></defs><path class="cls-1" d="M81.58,63.47a17.26,17.26,0,0,0-14.43,7.79L36.83,56.1a16.95,16.95,0,0,0,0-11.69L67.15,29.25a17.55,17.55,0,1,0-1.82-3.65L35,40.76a17.29,17.29,0,1,0,0,19L65.33,74.91A17.28,17.28,0,1,0,81.58,63.47Zm0-56.93A13.22,13.22,0,1,1,68.37,19.75,13.23,13.23,0,0,1,81.58,6.54Zm-61,56.93A13.22,13.22,0,1,1,33.79,50.26,13.23,13.23,0,0,1,20.58,63.47Zm61,30.5A13.22,13.22,0,1,1,94.8,80.76,13.23,13.23,0,0,1,81.58,94Z"/></svg>