<?xml version="1.0" encoding="utf-8"?>
<!-- Generator: Adobe Illustrator 24.1.2, SVG Export Plug-In . SVG Version: 6.00 Build 0)  -->
<svg version="1.1" id="Calque_1" xmlns="http://www.w3.org/2000/svg" xmlns:xlink="http://www.w3.org/1999/xlink" x="0px" y="0px"
	 viewBox="0 0 277.05 274.57" style="enable-background:new 0 0 277.05 274.57;" xml:space="preserve">
<style type="text/css">
	.st0{fill:none;stroke:#FFFFFF;stroke-width:2.5;stroke-miterlimit:10;}
	.st1{fill:none;stroke:#FFFFFF;stroke-width:2.5;stroke-linecap:round;stroke-linejoin:round;stroke-miterlimit:10;}
</style>
<path class="st0" d="M137.38,2.97C63.01,2.97,2.72,63.26,2.72,137.64S63.01,272.3,137.38,272.3c74.37,0,134.66-60.29,134.66-134.66
	S211.75,2.97,137.38,2.97z"/>
<path class="st1" d="M124.43,68.59c-18.1,2.28-32.72,16.9-35,35c-1.67,13.28,3.08,25.51,11.57,33.99l-0.06,0.06l0.06,0.06
	c-8.49,8.48-13.24,20.71-11.57,33.99c2.28,18.1,16.89,32.72,34.99,35c13.28,1.67,25.51-3.08,33.99-11.57l0.06,0.06l53.76-53.76
	c2.08-2.08,2.08-5.45,0-7.53l-53.76-53.76l-0.06,0.06C149.94,71.67,137.71,66.92,124.43,68.59z"/>
</svg>
