<?xml version="1.0" encoding="utf-8"?>
<!-- Generator: Adobe Illustrator 24.1.2, SVG Export Plug-In . SVG Version: 6.00 Build 0)  -->
<svg version="1.1" id="Calque_1" xmlns="http://www.w3.org/2000/svg" xmlns:xlink="http://www.w3.org/1999/xlink" x="0px" y="0px"
	 viewBox="0 0 277.05 274.57" style="enable-background:new 0 0 277.05 274.57;" xml:space="preserve">
<style type="text/css">
	.st0{fill:#FFFFFF;}
</style>
<path class="st0" d="M140.72,0.79c-53.6,0-97.04,43.45-97.04,97.04c0,3.17,1.71,17.99,1.71,17.99
	c2.77,28.52,95.34,158.75,95.34,158.75s93.8-130.32,96.56-158.85c0,0,0.48-14.72,0.48-17.89C237.77,44.24,194.32,0.79,140.72,0.79z
	 M140.72,151.89c-30.57,0-55.35-24.78-55.35-55.35s24.78-55.35,55.35-55.35c30.57,0,55.35,24.78,55.35,55.35
	S171.29,151.89,140.72,151.89z"/>
</svg>
