<?xml version="1.0" encoding="utf-8"?>
<!-- Generator: Adobe Illustrator 24.1.2, SVG Export Plug-In . SVG Version: 6.00 Build 0)  -->
<svg version="1.1" id="Calque_1" xmlns="http://www.w3.org/2000/svg" xmlns:xlink="http://www.w3.org/1999/xlink" x="0px" y="0px"
	 viewBox="0 0 102.05 102.05" style="enable-background:new 0 0 102.05 102.05;" xml:space="preserve">
<style type="text/css">
	.st0{fill:none;stroke:url(#SVGID_1_);stroke-width:2.5;stroke-miterlimit:10;}
	.st1{fill:none;stroke:url(#SVGID_2_);stroke-width:2.5;stroke-miterlimit:10;}
	.st2{fill:#FFFFFF;}
	.st3{fill:url(#SVGID_3_);}
	.st4{fill:url(#SVGID_4_);}
	.st5{fill:#FFFFFF;stroke:#FFFFFF;stroke-width:0.5;stroke-miterlimit:10;}
	.st6{fill:url(#SVGID_5_);}
	.st7{fill:url(#SVGID_6_);}
	.st8{fill:url(#SVGID_7_);}
	.st9{fill:#F08160;}
	.st10{fill:none;stroke:#FFFFFF;stroke-linejoin:round;stroke-miterlimit:10;}
	.st11{fill:none;stroke:#FFFFFF;stroke-linecap:round;stroke-linejoin:round;stroke-miterlimit:10;}
	.st12{fill:none;stroke:#F08160;stroke-miterlimit:10;}
	.st13{fill:none;stroke:#F08160;stroke-linecap:round;stroke-miterlimit:10;}
</style>
<path class="st2" d="M81.58,63.47c-6.03,0-11.34,3.1-14.43,7.79L36.83,56.1c0.66-1.83,1.04-3.79,1.04-5.85s-0.38-4.02-1.04-5.85
	l30.32-15.16c3.1,4.69,8.41,7.79,14.43,7.79c9.53,0,17.29-7.76,17.29-17.29S91.11,2.47,81.58,2.47s-17.29,7.76-17.29,17.29
	c0,2.05,0.38,4.02,1.04,5.85L35.01,40.76c-3.1-4.69-8.4-7.79-14.43-7.79c-9.53,0-17.29,7.75-17.29,17.29s7.76,17.29,17.29,17.29
	c6.03,0,11.34-3.1,14.43-7.79l30.32,15.16c-0.66,1.83-1.04,3.79-1.04,5.84c0,9.53,7.76,17.29,17.29,17.29s17.29-7.76,17.29-17.29
	S91.11,63.47,81.58,63.47z M81.58,6.54c7.29,0,13.21,5.93,13.21,13.21s-5.93,13.21-13.21,13.21c-7.29,0-13.21-5.93-13.21-13.21
	S74.3,6.54,81.58,6.54z M20.58,63.47c-7.29,0-13.21-5.93-13.21-13.21s5.93-13.21,13.21-13.21s13.21,5.93,13.21,13.21
	S27.86,63.47,20.58,63.47z M81.58,93.97c-7.29,0-13.21-5.93-13.21-13.21c0-7.29,5.93-13.21,13.21-13.21
	c7.29,0,13.21,5.93,13.21,13.21C94.8,88.04,88.87,93.97,81.58,93.97z"/>
</svg>
