<?xml version="1.0" encoding="utf-8"?>
<!-- Generator: Adobe Illustrator 24.1.2, SVG Export Plug-In . SVG Version: 6.00 Build 0)  -->
<svg version="1.1" id="Calque_1" xmlns="http://www.w3.org/2000/svg" xmlns:xlink="http://www.w3.org/1999/xlink" x="0px" y="0px"
	 viewBox="0 0 102.05 102.05" style="enable-background:new 0 0 102.05 102.05;" xml:space="preserve">
<style type="text/css">
	.st0{fill:none;stroke:url(#SVGID_1_);stroke-width:2.5;stroke-miterlimit:10;}
	.st1{fill:none;stroke:url(#SVGID_2_);stroke-width:2.5;stroke-miterlimit:10;}
	.st2{fill:#FFFFFF;}
	.st3{fill:url(#SVGID_3_);}
	.st4{fill:url(#SVGID_4_);}
	.st5{fill:#FFFFFF;stroke:#FFFFFF;stroke-width:0.5;stroke-miterlimit:10;}
	.st6{fill:url(#SVGID_5_);}
	.st7{fill:url(#SVGID_6_);}
	.st8{fill:url(#SVGID_7_);}
	.st9{fill:#F08160;}
	.st10{fill:none;stroke:#FFFFFF;stroke-linejoin:round;stroke-miterlimit:10;}
	.st11{fill:none;stroke:#FFFFFF;stroke-linecap:round;stroke-linejoin:round;stroke-miterlimit:10;}
	.st12{fill:none;stroke:#F08160;stroke-miterlimit:10;}
	.st13{fill:none;stroke:#F08160;stroke-linecap:round;stroke-miterlimit:10;}
</style>
<g>
	<path class="st2" d="M37.15,49.22c0.65-0.63,1.29-1.27,1.92-1.9c1.06-1.04,2.14-2.11,3.24-3.17C36.96,39.11,31.04,35,24.05,35H9.13
		v6.55h14.92C28.11,41.55,32.5,44.88,37.15,49.22z"/>
	<path class="st2" d="M76.7,54.57v8.11c0,0-9.18,0-10.94,0c-4.38,0-8.56-3.34-12.91-7.7c-0.37,0.4-0.75,0.79-1.12,1.19
		c-1.15,1.22-2.32,2.46-3.53,3.69c5.62,5.1,11.5,9.28,17.56,9.28c1.68,0,10.94,0,10.94,0v8.11l8.19-5.67l8.19-5.67l-8.19-5.67
		L76.7,54.57z"/>
	<path class="st2" d="M84.89,32.51l-8.19-5.67v8.11c0,0-9.26,0-10.94,0c-15.57,0-30.02,27.6-41.7,27.6H9.13v6.55h14.92
		c18.14,0,29.09-27.68,41.7-27.68c1.76,0,10.94,0,10.94,0v8.11l8.19-5.67l8.19-5.67L84.89,32.51z"/>
</g>
</svg>
