<?xml version="1.0" encoding="utf-8"?>
<!-- Generator: Adobe Illustrator 24.1.2, SVG Export Plug-In . SVG Version: 6.00 Build 0)  -->
<svg version="1.1" id="Calque_1" xmlns="http://www.w3.org/2000/svg" xmlns:xlink="http://www.w3.org/1999/xlink" x="0px" y="0px"
	 viewBox="0 0 274.57 274.57" style="enable-background:new 0 0 274.57 274.57;" xml:space="preserve">
<style type="text/css">
	.st0{fill:#FFFFFF;}
	.st1{fill:none;stroke:#E94A2C;stroke-width:2.5;stroke-miterlimit:10;}
	.st2{fill:none;stroke:#E94A2C;stroke-width:2.5;stroke-linecap:round;stroke-miterlimit:10;}
</style>
<g>
	<circle class="st0" cx="137.28" cy="137.28" r="137.28"/>
</g>
<g>
	<path class="st1" d="M158.24,188.45c0,11.67-9.46,21.13-21.13,21.13s-21.13-9.46-21.13-21.13"/>
	<path class="st1" d="M137.3,188.69h66.12c3.38,0,6.11-2.74,6.11-6.11v-4.82c0-4.88-2.78-9.34-7.17-11.48l0,0
		c-5.19-2.54-8.51-7.79-8.56-13.57c-0.11-12.47-0.28-33.48-0.28-38.6c0-7.4-7.66-49.12-56.22-49.12h-0.03
		c-48.56,0-56.22,41.72-56.22,49.12c0,5.11-0.17,26.12-0.28,38.6c-0.05,5.78-3.36,11.03-8.56,13.57l0,0
		c-4.39,2.14-7.17,6.6-7.17,11.48v4.82c0,3.38,2.74,6.11,6.11,6.11h66.12H137.3z"/>
</g>
<path class="st1" d="M182.36,104.82c-5.09-11.72-15.61-25.49-36.47-30.08"/>
<line class="st2" x1="69.7" y1="70.87" x2="204.51" y2="208.57"/>
</svg>
