<?xml version="1.0" encoding="UTF-8"?>
<svg width="18px" height="18px" viewBox="0 0 18 18" version="1.1" xmlns="http://www.w3.org/2000/svg" xmlns:xlink="http://www.w3.org/1999/xlink">
    <title>Search</title>
    <defs>
        <path d="M13,5 C17.418278,5 21,8.581722 21,13 C21,14.8482015 20.3732643,16.550021 19.3207287,17.9045228 L22.7071068,21.2928932 C23.0976311,21.6834175 23.0976311,22.3165825 22.7071068,22.7071068 C22.3165825,23.0976311 21.6834175,23.0976311 21.2928932,22.7071068 L21.2928932,22.7071068 L17.9045228,19.3207287 C16.550021,20.3732643 14.8482015,21 13,21 C8.581722,21 5,17.418278 5,13 C5,8.581722 8.581722,5 13,5 Z M13,7 C9.6862915,7 7,9.6862915 7,13 C7,16.3137085 9.6862915,19 13,19 C16.3137085,19 19,16.3137085 19,13 C19,9.6862915 16.3137085,7 13,7 Z" id="path-1"></path>
    </defs>
    <g id="Symbols" stroke="none" stroke-width="1" fill="none" fill-rule="evenodd">
        <g id="_Icons-/-Search" transform="translate(-5.000000, -5.000000)">
            <mask id="mask-2" fill="white">
                <use xlink:href="#path-1"></use>
            </mask>
            <use id="Search" fill="#1D1D26" xlink:href="#path-1"></use>
        </g>
    </g>
</svg>