<?xml version="1.0" encoding="iso-8859-1"?>
<!-- Generator: Adobe Illustrator 19.0.0, SVG Export Plug-In . SVG Version: 6.00 Build 0)  -->
<svg version="1.1" id="Capa_1" xmlns="http://www.w3.org/2000/svg" xmlns:xlink="http://www.w3.org/1999/xlink" x="0px" y="0px"
	 viewBox="0 0 512.043 512.043" style="enable-background:new 0 0 512.043 512.043;" xml:space="preserve">
<g>
	<g>
		<circle cx="153.626" cy="221.888" r="42.667"/>
	</g>
</g>
<g>
	<g>
		<path d="M299.742,203.413l-5.376-0.674c-13.815-1.732-25.259-10.428-29.884-22.707c-0.802-2.125-1.664-4.224-2.594-6.315
			c-5.53-12.424-3.456-27.221,5.41-38.613l2.714-3.49c2.637-3.396,2.338-8.226-0.708-11.273l-14.148-14.148
			c-3.038-3.038-7.876-3.336-11.281-0.7l-3.482,2.705c-11.383,8.866-26.189,10.948-38.613,5.41c-2.091-0.93-4.198-1.792-6.323-2.594
			c-12.271-4.625-20.975-16.077-22.699-29.884l-0.674-5.376c-0.529-4.267-4.164-7.475-8.465-7.475h-20.011
			c-4.301,0-7.936,3.2-8.465,7.475l-0.674,5.376c-1.732,13.815-10.428,25.267-22.699,29.884c-2.133,0.802-4.241,1.664-6.323,2.594
			c-12.433,5.504-27.23,3.448-38.613-5.41l-3.482-2.714c-3.396-2.654-8.235-2.347-11.273,0.7l-14.165,14.148
			c-3.046,3.038-3.345,7.868-0.708,11.273l2.714,3.49c8.866,11.392,10.931,26.189,5.41,38.622c-0.93,2.091-1.792,4.19-2.594,6.315
			c-4.625,12.271-16.077,20.975-29.884,22.699l-5.376,0.674C3.209,203.934,0,207.569,0,211.87v20.011
			c0,4.301,3.208,7.936,7.475,8.465l5.367,0.674c13.815,1.732,25.267,10.428,29.892,22.707c0.802,2.125,1.664,4.224,2.594,6.315
			c5.521,12.425,3.456,27.221-5.41,38.613l-2.705,3.49c-2.645,3.396-2.338,8.226,0.708,11.273l14.148,14.148
			c3.038,3.055,7.876,3.354,11.273,0.708l3.482-2.705c11.392-8.866,26.189-10.948,38.613-5.41c2.091,0.93,4.198,1.792,6.323,2.594
			c12.271,4.625,20.975,16.077,22.699,29.884l0.674,5.376c0.529,4.267,4.164,7.475,8.465,7.475h20.011
			c4.301,0,7.936-3.2,8.465-7.475l0.674-5.376c1.724-13.815,10.428-25.267,22.699-29.884c2.133-0.802,4.241-1.664,6.323-2.594
			c12.424-5.521,27.221-3.456,38.622,5.41l3.482,2.705c3.388,2.637,8.226,2.338,11.273-0.708l14.148-14.148
			c3.055-3.038,3.362-7.859,0.717-11.264l-2.714-3.49c-8.866-11.392-10.94-26.189-5.41-38.622c0.922-2.091,1.792-4.19,2.594-6.315
			c4.625-12.271,16.077-20.975,29.884-22.699l5.376-0.674c4.267-0.529,7.475-4.164,7.475-8.465v-20.011
			C307.217,207.578,304.017,203.942,299.742,203.413z M153.626,281.621c-32.939,0-59.733-26.795-59.733-59.733
			c0-32.939,26.795-59.733,59.733-59.733s59.733,26.795,59.733,59.733C213.359,254.827,186.564,281.621,153.626,281.621z"/>
	</g>
</g>
<g>
	<g>
		<circle cx="384.026" cy="384.021" r="34.133"/>
	</g>
</g>
<g>
	<g>
		<path d="M504.55,367.313l-4.429-0.555c-10.82-1.357-19.78-8.149-23.39-17.724c-0.666-1.775-1.391-3.541-2.167-5.299
			c-4.326-9.728-2.688-21.325,4.267-30.259l2.236-2.867c2.645-3.396,2.338-8.235-0.7-11.273l-11.657-11.648
			c-3.038-3.046-7.868-3.345-11.264-0.708l-2.876,2.236c-8.943,6.955-20.54,8.585-30.268,4.267
			c-1.749-0.776-3.507-1.493-5.291-2.167c-9.583-3.61-16.375-12.57-17.724-23.381l-0.555-4.429
			c-0.529-4.275-4.164-7.475-8.465-7.475h-16.478c-4.301,0-7.936,3.2-8.474,7.475l-0.546,4.429
			c-1.357,10.82-8.149,19.78-17.732,23.39c-1.775,0.674-3.541,1.391-5.282,2.167c-9.737,4.309-21.325,2.688-30.276-4.275
			l-2.867-2.227c-3.396-2.637-8.226-2.321-11.264,0.708l-11.648,11.648c-3.046,3.038-3.345,7.876-0.708,11.273l2.236,2.867
			c6.955,8.943,8.593,20.54,4.267,30.268c-0.777,1.749-1.493,3.516-2.159,5.282c-3.61,9.583-12.578,16.375-23.398,17.732
			l-4.429,0.555c-4.267,0.529-7.475,4.164-7.475,8.465v16.478c0,4.301,3.2,7.936,7.475,8.465l4.429,0.555
			c10.82,1.357,19.78,8.149,23.39,17.724c0.674,1.775,1.391,3.541,2.167,5.299c4.326,9.728,2.688,21.325-4.267,30.259l-2.236,2.867
			c-2.645,3.396-2.338,8.235,0.708,11.273l11.648,11.648c3.046,3.038,7.868,3.345,11.264,0.708l2.876-2.236
			c8.943-6.955,20.54-8.585,30.268-4.267c1.749,0.777,3.507,1.493,5.282,2.167c9.583,3.61,16.375,12.57,17.732,23.381l0.546,4.429
			c0.529,4.275,4.164,7.475,8.474,7.475h16.478c4.301,0,7.936-3.2,8.465-7.475l0.546-4.429c1.357-10.82,8.149-19.78,17.741-23.398
			c1.775-0.674,3.541-1.391,5.282-2.167c9.728-4.326,21.325-2.697,30.268,4.275l2.867,2.227c3.396,2.637,8.226,2.33,11.264-0.708
			l11.656-11.648c3.038-3.038,3.345-7.876,0.7-11.273l-2.236-2.867c-6.955-8.943-8.585-20.54-4.267-30.268
			c0.777-1.749,1.502-3.516,2.167-5.282c3.61-9.583,12.578-16.375,23.39-17.732l4.429-0.555c4.267-0.529,7.467-4.164,7.467-8.465
			V375.77C512.026,371.477,508.817,367.851,504.55,367.313z M384.026,435.221c-28.228,0-51.2-22.963-51.2-51.2
			c0-28.237,22.972-51.2,51.2-51.2c28.237,0,51.2,22.963,51.2,51.2C435.226,412.258,412.254,435.221,384.026,435.221z"/>
	</g>
</g>
<g>
	<g>
		<circle cx="401.092" cy="110.955" r="17.067"/>
	</g>
</g>
<g>
	<g>
		<path d="M504.55,95.424l-3.797-0.478c-8.687-1.084-16.171-6.75-19.055-14.421c-0.58-1.545-1.212-3.081-1.886-4.591
			c-3.524-7.927-2.185-17.391,3.499-24.695l1.92-2.458c2.645-3.396,2.347-8.226-0.7-11.273l-9.984-9.984
			c-3.038-3.038-7.876-3.337-11.273-0.708l-2.466,1.92c-7.305,5.683-16.777,7.031-24.695,3.507
			c-1.527-0.683-3.063-1.306-4.599-1.886c-7.791-2.935-13.321-10.24-14.421-19.055l-0.469-3.797
			c-0.529-4.267-4.164-7.475-8.474-7.475h-14.123c-4.301,0-7.936,3.208-8.465,7.475l-0.469,3.789
			c-1.084,8.687-6.75,16.171-14.404,19.055c-1.553,0.58-3.098,1.212-4.617,1.894c-7.919,3.516-17.391,2.185-24.704-3.507
			l-2.466-1.911c-3.396-2.645-8.226-2.338-11.264,0.708l-9.984,9.984c-3.046,3.046-3.345,7.876-0.7,11.273l1.911,2.458
			c5.683,7.313,7.031,16.777,3.507,24.695c-0.674,1.519-1.297,3.046-1.886,4.599c-2.884,7.672-10.368,13.329-19.055,14.413
			l-3.797,0.478c-4.267,0.529-7.475,4.164-7.475,8.465v14.123c0,4.301,3.2,7.936,7.475,8.465l3.797,0.478
			c8.695,1.084,16.171,6.75,19.063,14.421c0.58,1.544,1.212,3.081,1.886,4.591c3.524,7.927,2.176,17.391-3.507,24.695l-1.911,2.458
			c-2.645,3.396-2.347,8.226,0.7,11.273l9.984,9.984c3.038,3.046,7.876,3.354,11.273,0.708l2.466-1.92
			c7.305-5.683,16.768-7.023,24.695-3.507c1.527,0.683,3.063,1.306,4.599,1.886c7.791,2.935,13.32,10.24,14.413,19.055l0.478,3.797
			c0.529,4.267,4.164,7.475,8.465,7.475h14.123c4.301,0,7.936-3.208,8.474-7.475l0.469-3.789c1.101-8.823,6.63-16.128,14.404-19.055
			c1.553-0.58,3.098-1.212,4.617-1.894c7.919-3.524,17.391-2.185,24.704,3.507l2.466,1.911c3.396,2.637,8.226,2.33,11.273-0.708
			l9.984-9.984c3.046-3.046,3.345-7.876,0.7-11.273l-1.911-2.458c-5.692-7.313-7.031-16.777-3.507-24.695
			c0.674-1.519,1.306-3.046,1.886-4.599c2.893-7.672,10.368-13.329,19.063-14.413l3.797-0.478c4.267-0.529,7.467-4.164,7.467-8.465
			v-14.123C512.026,99.588,508.817,95.962,504.55,95.424z M401.092,145.088c-18.825,0-34.133-15.309-34.133-34.133
			s15.309-34.133,34.133-34.133c18.825,0,34.133,15.309,34.133,34.133S419.908,145.088,401.092,145.088z"/>
	</g>
</g>
<g>
</g>
<g>
</g>
<g>
</g>
<g>
</g>
<g>
</g>
<g>
</g>
<g>
</g>
<g>
</g>
<g>
</g>
<g>
</g>
<g>
</g>
<g>
</g>
<g>
</g>
<g>
</g>
<g>
</g>
</svg>
