<?xml version="1.0" encoding="utf-8"?>
<!-- Generator: Adobe Illustrator 24.1.2, SVG Export Plug-In . SVG Version: 6.00 Build 0)  -->
<svg version="1.1" id="Calque_1" xmlns="http://www.w3.org/2000/svg" xmlns:xlink="http://www.w3.org/1999/xlink" x="0px" y="0px"
	 viewBox="0 0 277.05 274.57" style="enable-background:new 0 0 277.05 274.57;" xml:space="preserve">
<style type="text/css">
	.st0{fill:#FFFFFF;}
	.st1{fill:#57B25C;}
</style>
<g>
	<circle class="st0" cx="139.76" cy="137.28" r="137.28"/>
	<g>
		<g>
			<g>
				<path class="st1" d="M139.76,36.37c-55.73,0-100.91,45.18-100.91,100.91c0,55.74,45.18,100.91,100.91,100.91
					c55.73,0,100.91-45.18,100.91-100.91C240.67,81.55,195.49,36.37,139.76,36.37z M186.04,181.92c-1.81,2.97-5.69,3.9-8.65,2.09
					c-23.7-14.48-53.52-17.75-88.65-9.73c-3.39,0.78-6.76-1.35-7.53-4.73c-0.78-3.38,1.34-6.76,4.73-7.53
					c38.44-8.79,71.41-5.01,98.01,11.25C186.92,175.08,187.85,178.96,186.04,181.92z M198.39,154.44c-2.28,3.7-7.12,4.86-10.82,2.59
					c-27.12-16.67-68.47-21.5-100.55-11.76c-4.16,1.26-8.56-1.09-9.82-5.24c-1.25-4.16,1.09-8.55,5.25-9.81
					c36.65-11.12,82.21-5.73,113.36,13.41C199.5,145.91,200.66,150.75,198.39,154.44z M199.45,125.83
					c-32.53-19.32-86.18-21.09-117.23-11.67c-4.99,1.51-10.26-1.3-11.77-6.29c-1.51-4.99,1.3-10.26,6.29-11.77
					c35.65-10.82,94.9-8.73,132.35,13.5c4.49,2.66,5.96,8.45,3.3,12.93C209.72,127.02,203.93,128.5,199.45,125.83z"/>
			</g>
		</g>
	</g>
</g>
</svg>
