<?xml version="1.0" encoding="iso-8859-1"?>
<!-- Generator: Adobe Illustrator 19.0.0, SVG Export Plug-In . SVG Version: 6.00 Build 0)  -->
<svg version="1.1" id="Layer_1" xmlns="http://www.w3.org/2000/svg" xmlns:xlink="http://www.w3.org/1999/xlink" x="0px" y="0px"
	 viewBox="0 0 512 512" style="enable-background:new 0 0 512 512;" xml:space="preserve">
<g>
	<g>
		<circle cx="289.391" cy="89.043" r="16.696"/>
	</g>
</g>
<g>
	<g>
		<circle cx="356.174" cy="89.043" r="16.696"/>
	</g>
</g>
<g>
	<g>
		<circle cx="422.957" cy="89.043" r="16.696"/>
	</g>
</g>
<g>
	<g>
		<path d="M122.435,72.348H89.044c-9.22,0-16.696,7.475-16.696,16.696c0,9.22,7.475,16.696,16.696,16.696h33.391
			c9.22,0,16.696-7.475,16.696-16.696C139.13,79.823,131.655,72.348,122.435,72.348z"/>
	</g>
</g>
<g>
	<g>
		<path d="M222.609,72.348h-33.391c-9.22,0-16.696,7.475-16.696,16.696c0,9.22,7.475,16.696,16.696,16.696h33.391
			c9.22,0,16.696-7.475,16.696-16.696C239.304,79.823,231.829,72.348,222.609,72.348z"/>
	</g>
</g>
<g>
	<g>
		<path d="M139.13,308.959v-86.35c0-9.22-7.475-16.696-16.696-16.696c-9.22,0-16.696,7.475-16.696,16.696v86.35
			c-19.433,6.892-33.391,25.45-33.391,47.215c0,21.766,13.959,40.323,33.391,47.215v19.567c0,9.22,7.475,16.696,16.696,16.696
			c9.22,0,16.696-7.475,16.696-16.696v-19.567c19.433-6.892,33.391-25.45,33.391-47.215
			C172.522,334.408,158.563,315.851,139.13,308.959z M122.435,372.87c-9.206,0-16.696-7.49-16.696-16.696
			c0-9.206,7.49-16.696,16.696-16.696c9.206,0,16.696,7.49,16.696,16.696C139.13,365.38,131.641,372.87,122.435,372.87z"/>
	</g>
</g>
<g>
	<g>
		<path d="M272.696,242.176v-19.567c0-9.22-7.475-16.696-16.696-16.696c-9.22,0-16.696,7.475-16.696,16.696v19.567
			c-19.433,6.892-33.391,25.45-33.391,47.215s13.959,40.323,33.391,47.215v86.35c0,9.22,7.475,16.696,16.696,16.696
			c9.22,0,16.696-7.475,16.696-16.696v-86.35c19.433-6.892,33.391-25.45,33.391-47.215S292.128,249.068,272.696,242.176z
			 M256,306.087c-9.206,0-16.696-7.49-16.696-16.696s7.49-16.696,16.696-16.696c9.206,0,16.696,7.49,16.696,16.696
			S265.206,306.087,256,306.087z"/>
	</g>
</g>
<g>
	<g>
		<path d="M406.261,308.959v-86.35c0-9.22-7.475-16.696-16.696-16.696c-9.22,0-16.696,7.475-16.696,16.696v86.35
			c-19.433,6.892-33.391,25.45-33.391,47.215c0,21.766,13.959,40.323,33.391,47.215v19.567c0,9.22,7.475,16.696,16.696,16.696
			c9.22,0,16.696-7.475,16.696-16.696v-19.567c19.433-6.892,33.391-25.45,33.391-47.215
			C439.652,334.408,425.693,315.851,406.261,308.959z M389.565,372.87c-9.206,0-16.696-7.49-16.696-16.696
			c0-9.206,7.49-16.696,16.696-16.696c9.206,0,16.696,7.49,16.696,16.696C406.261,365.38,398.771,372.87,389.565,372.87z"/>
	</g>
</g>
<g>
	<g>
		<path d="M456.348,0H55.652C24.966,0,0,24.966,0,55.652v400.696C0,487.034,24.966,512,55.652,512h400.696
			C487.034,512,512,487.034,512,456.348V55.652C512,24.966,487.034,0,456.348,0z M478.609,456.348
			c0,12.275-9.986,22.261-22.261,22.261H55.652c-12.275,0-22.261-9.986-22.261-22.261V172.522h445.217V456.348z M478.609,139.13
			H33.391V55.652c0-12.275,9.986-22.261,22.261-22.261h400.696c12.275,0,22.261,9.986,22.261,22.261V139.13z"/>
	</g>
</g>
<g>
</g>
<g>
</g>
<g>
</g>
<g>
</g>
<g>
</g>
<g>
</g>
<g>
</g>
<g>
</g>
<g>
</g>
<g>
</g>
<g>
</g>
<g>
</g>
<g>
</g>
<g>
</g>
<g>
</g>
</svg>
