<?xml version="1.0" encoding="utf-8"?>
<!-- Generator: Adobe Illustrator 24.1.2, SVG Export Plug-In . SVG Version: 6.00 Build 0)  -->
<svg version="1.1" id="Calque_1" xmlns="http://www.w3.org/2000/svg" xmlns:xlink="http://www.w3.org/1999/xlink" x="0px" y="0px"
	 viewBox="0 0 102.05 102.05" style="enable-background:new 0 0 102.05 102.05;" xml:space="preserve">
<style type="text/css">
	.st0{fill:none;stroke:url(#SVGID_1_);stroke-width:2.5;stroke-linecap:round;stroke-miterlimit:10;}
	.st1{fill:none;stroke:url(#SVGID_2_);stroke-width:2.5;stroke-linecap:round;stroke-miterlimit:10;}
	.st2{fill:#FFFFFF;}
	.st3{fill:url(#SVGID_3_);}
	.st4{fill:url(#SVGID_4_);}
	.st5{fill:#FFFFFF;stroke:#FFFFFF;stroke-width:0.5;stroke-miterlimit:10;}
	.st6{fill:url(#SVGID_5_);}
	.st7{fill:url(#SVGID_6_);}
</style>
<linearGradient id="SVGID_1_" gradientUnits="userSpaceOnUse" x1="3.7556" y1="51.0236" x2="98.5641" y2="51.0236">
	<stop  offset="0" style="stop-color:#F08160"/>
	<stop  offset="0.1803" style="stop-color:#F08861"/>
	<stop  offset="0.4549" style="stop-color:#F29964"/>
	<stop  offset="0.7878" style="stop-color:#F4B366"/>
	<stop  offset="1" style="stop-color:#F5C466"/>
</linearGradient>
<path style="fill:url(#SVGID_1_);" d="M51.16,3.62c-26.18,0-47.4,21.22-47.4,47.4s21.22,47.4,47.4,47.4
	c26.18,0,47.4-21.22,47.4-47.4S77.34,3.62,51.16,3.62z M81.99,27.84l-27.92,50c-0.75,1.35-2.13,2.24-3.68,2.37
	c-0.13,0.01-0.26,0.02-0.39,0.02c-1.41,0-2.74-0.64-3.63-1.74L24.29,50.89c-1.61-2.01-1.28-4.93,0.72-6.54
	c2.01-1.6,4.93-1.28,6.54,0.72l17.76,22.19L73.86,23.3c1.25-2.24,4.09-3.05,6.33-1.79C82.44,22.76,83.24,25.6,81.99,27.84z"/>
</svg>
