<?xml version="1.0" encoding="utf-8"?>
<!-- Generator: Adobe Illustrator 24.1.2, SVG Export Plug-In . SVG Version: 6.00 Build 0)  -->
<svg version="1.1" id="Calque_1" xmlns="http://www.w3.org/2000/svg" xmlns:xlink="http://www.w3.org/1999/xlink" x="0px" y="0px"
	 viewBox="0 0 277.05 274.57" style="enable-background:new 0 0 277.05 274.57;" xml:space="preserve">
<style type="text/css">
	.st0{fill:#FFFFFF;}
</style>
<path class="st0" d="M242.72,274.57c-1.08,0-2.18-0.27-3.18-0.85L35.82,156.1c-6.8-3.93-10.86-10.96-10.86-18.82
	c0-7.86,4.06-14.89,10.86-18.82L239.53,0.85c3.04-1.76,6.95-0.71,8.71,2.33c1.76,3.05,0.71,6.95-2.33,8.71L42.2,129.51
	c-2.81,1.62-4.49,4.53-4.49,7.78c0,3.24,1.68,6.15,4.49,7.77l203.71,117.61c3.05,1.76,4.09,5.66,2.33,8.71
	C247.06,273.43,244.92,274.57,242.72,274.57z"/>
</svg>
