<?xml version="1.0" encoding="utf-8"?>
<!-- Generator: Adobe Illustrator 24.1.2, SVG Export Plug-In . SVG Version: 6.00 Build 0)  -->
<svg version="1.1" id="Calque_1" xmlns="http://www.w3.org/2000/svg" xmlns:xlink="http://www.w3.org/1999/xlink" x="0px" y="0px"
	 viewBox="0 0 102.05 102.05" style="enable-background:new 0 0 102.05 102.05;" xml:space="preserve">
<style type="text/css">
	.st0{fill:none;stroke:url(#SVGID_1_);stroke-width:2.5;stroke-miterlimit:10;}
	.st1{fill:none;stroke:url(#SVGID_2_);stroke-width:2.5;stroke-miterlimit:10;}
	.st2{fill:#FFFFFF;}
	.st3{fill:url(#SVGID_3_);}
	.st4{fill:url(#SVGID_4_);}
	.st5{fill:#FFFFFF;stroke:#FFFFFF;stroke-width:0.5;stroke-miterlimit:10;}
	.st6{fill:url(#SVGID_5_);}
	.st7{fill:url(#SVGID_6_);}
	.st8{fill:url(#SVGID_7_);}
	.st9{fill:#F08160;}
	.st10{fill:none;stroke:#FFFFFF;stroke-linejoin:round;stroke-miterlimit:10;}
	.st11{fill:none;stroke:#FFFFFF;stroke-linecap:round;stroke-linejoin:round;stroke-miterlimit:10;}
	.st12{fill:none;stroke:#F08160;stroke-miterlimit:10;}
	.st13{fill:none;stroke:#F08160;stroke-linecap:round;stroke-miterlimit:10;}
</style>
<g>
	<path class="st5" d="M88.02,1.79H75.24c-1.42,0-2.66,1.24-2.66,2.66s1.24,2.66,2.66,2.66h6.39L68.67,20.07
		c-5.15-4.26-11.54-6.74-18.81-6.74c-7.1,0-13.67,2.48-18.81,6.74l-2.66-2.66l4.44-4.44c1.06-1.06,1.06-2.66,0-3.73
		s-2.66-1.06-3.73,0l-4.44,4.44L18.8,7.47h6.03c1.42,0,2.66-1.24,2.66-2.66s-1.24-2.66-2.66-2.66H12.41c-0.35,0-0.71,0-0.89,0.18
		l0,0c-0.71,0.35-1.24,0.71-1.42,1.42l0,0C9.92,4.1,9.92,4.45,9.92,4.63v12.42c0,1.42,1.24,2.66,2.66,2.66s2.66-1.24,2.66-2.66
		v-6.03l6.21,6.21l-4.44,4.44c-1.06,1.06-1.06,2.66,0,3.73c0.53,0.53,1.24,0.71,1.95,0.71c0.71,0,1.42-0.18,1.95-0.71l4.44-4.44
		l2.66,2.66c-4.26,5.15-6.74,11.54-6.74,18.81c0,15.26,11.71,27.87,26.62,29.11v12.78h-6.21c-1.42,0-2.66,1.24-2.66,2.66
		s1.24,2.66,2.66,2.66h6.21v6.03c0,1.42,1.24,2.66,2.66,2.66c1.42,0,2.66-1.24,2.66-2.66v-6.03h6.21c1.42,0,2.66-1.24,2.66-2.66
		s-1.24-2.66-2.66-2.66h-6.21V71.54c14.91-1.42,26.62-13.84,26.62-29.11c0-7.1-2.48-13.67-6.74-18.81l12.96-12.96v6.39
		c0,1.42,1.24,2.66,2.66,2.66s2.66-1.24,2.66-2.66V4.28C90.68,3.03,89.61,1.79,88.02,1.79z M50.03,66.4
		c-13.13,0-23.96-10.83-23.96-23.96S36.9,18.48,50.03,18.48S73.99,29.3,73.99,42.44S63.17,66.4,50.03,66.4z"/>
	<path class="st2" d="M58.91,35.87H41.51c-1.42,0-2.66,1.24-2.66,2.66c0,1.42,1.24,2.66,2.66,2.66h17.39c1.42,0,2.66-1.24,2.66-2.66
		C61.57,37.11,60.33,35.87,58.91,35.87z"/>
	<path class="st2" d="M58.91,44.74H41.51c-1.42,0-2.66,1.24-2.66,2.66s1.24,2.66,2.66,2.66h17.39c1.42,0,2.66-1.24,2.66-2.66
		S60.33,44.74,58.91,44.74z"/>
</g>
</svg>
