<?xml version="1.0" encoding="utf-8"?>
<!-- Generator: Adobe Illustrator 24.1.2, SVG Export Plug-In . SVG Version: 6.00 Build 0)  -->
<svg version="1.1" id="Calque_1" xmlns="http://www.w3.org/2000/svg" xmlns:xlink="http://www.w3.org/1999/xlink" x="0px" y="0px"
	 viewBox="0 0 102.05 102.05" style="enable-background:new 0 0 102.05 102.05;" xml:space="preserve">
<style type="text/css">
	.st0{fill:none;stroke:url(#SVGID_1_);stroke-width:2.5;stroke-miterlimit:10;}
	.st1{fill:none;stroke:url(#SVGID_2_);stroke-width:2.5;stroke-miterlimit:10;}
	.st2{fill:#FFFFFF;}
	.st3{fill:url(#SVGID_3_);}
	.st4{fill:url(#SVGID_4_);}
	.st5{fill:#FFFFFF;stroke:#FFFFFF;stroke-width:0.5;stroke-miterlimit:10;}
	.st6{fill:url(#SVGID_5_);}
	.st7{fill:url(#SVGID_6_);}
	.st8{fill:url(#SVGID_7_);}
	.st9{fill:#F08160;}
	.st10{fill:none;stroke:#FFFFFF;stroke-linejoin:round;stroke-miterlimit:10;}
	.st11{fill:none;stroke:#FFFFFF;stroke-linecap:round;stroke-linejoin:round;stroke-miterlimit:10;}
	.st12{fill:none;stroke:#F08160;stroke-miterlimit:10;}
	.st13{fill:none;stroke:#F08160;stroke-linecap:round;stroke-miterlimit:10;}
</style>
<g>
	<circle class="st2" cx="52.32" cy="50.61" r="46.14"/>
</g>
<g>
	<path class="st12" d="M59.36,67.81c0,3.92-3.18,7.1-7.1,7.1s-7.1-3.18-7.1-7.1"/>
	<path class="st12" d="M52.32,67.89h22.22c1.13,0,2.05-0.92,2.05-2.05v-1.62c0-1.64-0.94-3.14-2.41-3.86l0,0
		c-1.75-0.85-2.86-2.62-2.88-4.56c-0.04-4.19-0.09-11.25-0.09-12.97c0-2.49-2.58-16.51-18.9-16.51h-0.01
		c-16.32,0-18.9,14.02-18.9,16.51c0,1.72-0.06,8.78-0.09,12.97c-0.02,1.94-1.13,3.71-2.88,4.56l0,0c-1.47,0.72-2.41,2.22-2.41,3.86
		v1.62c0,1.13,0.92,2.05,2.05,2.05h22.22H52.32z"/>
</g>
<path class="st12" d="M67.13,39.7c-1.71-3.94-5.25-8.57-12.26-10.11"/>
<line class="st13" x1="29.6" y1="28.29" x2="74.91" y2="74.57"/>
</svg>
