<?xml version="1.0" encoding="utf-8"?>
<!-- Generator: Adobe Illustrator 24.1.2, SVG Export Plug-In . SVG Version: 6.00 Build 0)  -->
<svg version="1.1" id="Calque_1" xmlns="http://www.w3.org/2000/svg" xmlns:xlink="http://www.w3.org/1999/xlink" x="0px" y="0px"
	 viewBox="0 0 102.05 102.05" style="enable-background:new 0 0 102.05 102.05;" xml:space="preserve">
<style type="text/css">
	.st0{fill:none;stroke:url(#SVGID_1_);stroke-width:2.5;stroke-linecap:round;stroke-miterlimit:10;}
	.st1{fill:none;stroke:url(#SVGID_2_);stroke-width:2.5;stroke-linecap:round;stroke-miterlimit:10;}
	.st2{fill:#FFFFFF;}
	.st3{fill:url(#SVGID_3_);}
	.st4{fill:url(#SVGID_4_);}
</style>
<linearGradient id="SVGID_1_" gradientUnits="userSpaceOnUse" x1="100.4711" y1="51.2235" x2="0.8893" y2="51.2235">
	<stop  offset="0" style="stop-color:#F08160"/>
	<stop  offset="0.1803" style="stop-color:#F08861"/>
	<stop  offset="0.4549" style="stop-color:#F29964"/>
	<stop  offset="0.7878" style="stop-color:#F4B366"/>
	<stop  offset="1" style="stop-color:#F5C466"/>
</linearGradient>
<path style="fill:url(#SVGID_1_);" d="M50.68,1.43c-27.5,0-49.79,22.29-49.79,49.79c0,27.5,22.29,49.79,49.79,49.79
	c27.5,0,49.79-22.29,49.79-49.79C100.47,23.72,78.18,1.43,50.68,1.43z M78.36,52.62L58.48,72.5l-0.02-0.02
	c-3.14,3.14-7.66,4.9-12.57,4.28c-6.69-0.84-12.1-6.25-12.94-12.94c-0.62-4.91,1.14-9.43,4.28-12.57l-0.02-0.02l0.02-0.02
	c-3.14-3.14-4.9-7.66-4.28-12.57c0.84-6.69,6.25-12.1,12.94-12.94c4.91-0.62,9.43,1.14,12.57,4.28l0.02-0.02l19.88,19.88
	C79.13,50.6,79.13,51.85,78.36,52.62z"/>
</svg>
