<?xml version="1.0" encoding="utf-8"?>
<!-- Generator: Adobe Illustrator 24.1.2, SVG Export Plug-In . SVG Version: 6.00 Build 0)  -->
<svg version="1.1" id="Calque_1" xmlns="http://www.w3.org/2000/svg" xmlns:xlink="http://www.w3.org/1999/xlink" x="0px" y="0px"
	 viewBox="0 0 102.05 102.05" style="enable-background:new 0 0 102.05 102.05;" xml:space="preserve">
<style type="text/css">
	.st0{fill:none;stroke:url(#SVGID_1_);stroke-width:2.5;stroke-miterlimit:10;}
	.st1{fill:none;stroke:url(#SVGID_2_);stroke-width:2.5;stroke-miterlimit:10;}
	.st2{fill:#FFFFFF;}
	.st3{fill:url(#SVGID_3_);}
	.st4{fill:url(#SVGID_4_);}
	.st5{fill:#FFFFFF;stroke:#FFFFFF;stroke-width:0.5;stroke-miterlimit:10;}
	.st6{fill:url(#SVGID_5_);}
	.st7{fill:url(#SVGID_6_);}
	.st8{fill:url(#SVGID_7_);}
	.st9{fill:#F08160;}
	.st10{fill:none;stroke:#FFFFFF;stroke-linejoin:round;stroke-miterlimit:10;}
	.st11{fill:none;stroke:#FFFFFF;stroke-linecap:round;stroke-linejoin:round;stroke-miterlimit:10;}
	.st12{fill:none;stroke:#F08160;stroke-miterlimit:10;}
	.st13{fill:none;stroke:#F08160;stroke-linecap:round;stroke-miterlimit:10;}
	.st14{fill:none;stroke:url(#SVGID_8_);stroke-width:2.5;stroke-linecap:round;stroke-miterlimit:10;}
	.st15{fill:none;stroke:url(#SVGID_9_);stroke-width:2.5;stroke-linecap:round;stroke-miterlimit:10;}
	.st16{fill:none;stroke:url(#SVGID_10_);stroke-width:2.5;stroke-linecap:round;stroke-miterlimit:10;}
	.st17{fill:none;stroke:#FFFFFF;stroke-width:2.5;stroke-linecap:round;stroke-miterlimit:10;}
	.st18{fill:url(#SVGID_11_);}
	.st19{fill:url(#SVGID_12_);}
	.st20{fill:url(#SVGID_13_);}
	.st21{fill:url(#SVGID_14_);}
	.st22{fill:url(#SVGID_15_);}
	.st23{fill:url(#SVGID_16_);}
	.st24{fill:url(#SVGID_17_);}
</style>
<g>
	
		<linearGradient id="SVGID_1_" gradientUnits="userSpaceOnUse" x1="2226.4375" y1="-724.9358" x2="2321.1445" y2="-724.9358" gradientTransform="matrix(1 0 0 1 -2227.9675 776.5688)">
		<stop  offset="0" style="stop-color:#F08160"/>
		<stop  offset="0.1803" style="stop-color:#F08861"/>
		<stop  offset="0.4549" style="stop-color:#F29964"/>
		<stop  offset="0.7878" style="stop-color:#F4B366"/>
		<stop  offset="1" style="stop-color:#F5C466"/>
	</linearGradient>
	<path style="fill:url(#SVGID_1_);" d="M9.57,68.81c-1.76,0-3.18-1.42-3.18-3.18V37.64c0-1.76,1.42-3.18,3.18-3.18
		s3.18,1.42,3.18,3.18v27.98C12.75,67.38,11.32,68.81,9.57,68.81z"/>
	
		<linearGradient id="SVGID_2_" gradientUnits="userSpaceOnUse" x1="2226.4375" y1="-725.1906" x2="2321.1445" y2="-725.1906" gradientTransform="matrix(1 0 0 1 -2227.9675 776.5688)">
		<stop  offset="0" style="stop-color:#F08160"/>
		<stop  offset="0.1803" style="stop-color:#F08861"/>
		<stop  offset="0.4549" style="stop-color:#F29964"/>
		<stop  offset="0.7878" style="stop-color:#F4B366"/>
		<stop  offset="1" style="stop-color:#F5C466"/>
	</linearGradient>
	<path style="fill:url(#SVGID_2_);" d="M23.53,82.55c-1.76,0-3.18-1.42-3.18-3.18V23.39c0-1.76,1.42-3.18,3.18-3.18
		s3.18,1.42,3.18,3.18v55.97C26.71,81.12,25.29,82.55,23.53,82.55z"/>
	
		<linearGradient id="SVGID_3_" gradientUnits="userSpaceOnUse" x1="2226.4375" y1="-725.0626" x2="2321.1445" y2="-725.0626" gradientTransform="matrix(1 0 0 1 -2227.9675 776.5688)">
		<stop  offset="0" style="stop-color:#F08160"/>
		<stop  offset="0.1803" style="stop-color:#F08861"/>
		<stop  offset="0.4549" style="stop-color:#F29964"/>
		<stop  offset="0.7878" style="stop-color:#F4B366"/>
		<stop  offset="1" style="stop-color:#F5C466"/>
	</linearGradient>
	<path class="st3" d="M37.49,97.05c-1.76,0-3.18-1.42-3.18-3.18V9.15c0-1.76,1.42-3.18,3.18-3.18c1.76,0,3.18,1.42,3.18,3.18v84.72
		C40.67,95.62,39.25,97.05,37.49,97.05z"/>
	
		<linearGradient id="SVGID_4_" gradientUnits="userSpaceOnUse" x1="2226.4375" y1="-725.1906" x2="2321.1445" y2="-725.1906" gradientTransform="matrix(1 0 0 1 -2227.9675 776.5688)">
		<stop  offset="0" style="stop-color:#F08160"/>
		<stop  offset="0.1803" style="stop-color:#F08861"/>
		<stop  offset="0.4549" style="stop-color:#F29964"/>
		<stop  offset="0.7878" style="stop-color:#F4B366"/>
		<stop  offset="1" style="stop-color:#F5C466"/>
	</linearGradient>
	<path class="st4" d="M51.45,82.55c-1.76,0-3.18-1.42-3.18-3.18V23.39c0-1.76,1.42-3.18,3.18-3.18c1.76,0,3.18,1.42,3.18,3.18v55.97
		C54.63,81.12,53.21,82.55,51.45,82.55z"/>
	
		<linearGradient id="SVGID_5_" gradientUnits="userSpaceOnUse" x1="2226.4375" y1="-724.9358" x2="2321.1445" y2="-724.9358" gradientTransform="matrix(1 0 0 1 -2227.9675 776.5688)">
		<stop  offset="0" style="stop-color:#F08160"/>
		<stop  offset="0.1803" style="stop-color:#F08861"/>
		<stop  offset="0.4549" style="stop-color:#F29964"/>
		<stop  offset="0.7878" style="stop-color:#F4B366"/>
		<stop  offset="1" style="stop-color:#F5C466"/>
	</linearGradient>
	<path class="st6" d="M65.41,68.81c-1.76,0-3.18-1.42-3.18-3.18V37.64c0-1.76,1.42-3.18,3.18-3.18c1.76,0,3.18,1.42,3.18,3.18v27.98
		C68.59,67.38,67.17,68.81,65.41,68.81z"/>
	
		<linearGradient id="SVGID_6_" gradientUnits="userSpaceOnUse" x1="2226.4375" y1="-725.1906" x2="2321.1445" y2="-725.1906" gradientTransform="matrix(1 0 0 1 -2227.9675 776.5688)">
		<stop  offset="0" style="stop-color:#F08160"/>
		<stop  offset="0.1803" style="stop-color:#F08861"/>
		<stop  offset="0.4549" style="stop-color:#F29964"/>
		<stop  offset="0.7878" style="stop-color:#F4B366"/>
		<stop  offset="1" style="stop-color:#F5C466"/>
	</linearGradient>
	<path class="st7" d="M79.37,82.55c-1.76,0-3.18-1.42-3.18-3.18V23.39c0-1.76,1.42-3.18,3.18-3.18c1.76,0,3.18,1.42,3.18,3.18v55.97
		C82.55,81.12,81.13,82.55,79.37,82.55z"/>
	
		<linearGradient id="SVGID_7_" gradientUnits="userSpaceOnUse" x1="2226.4375" y1="-724.9358" x2="2321.1445" y2="-724.9358" gradientTransform="matrix(1 0 0 1 -2227.9675 776.5688)">
		<stop  offset="0" style="stop-color:#F08160"/>
		<stop  offset="0.1803" style="stop-color:#F08861"/>
		<stop  offset="0.4549" style="stop-color:#F29964"/>
		<stop  offset="0.7878" style="stop-color:#F4B366"/>
		<stop  offset="1" style="stop-color:#F5C466"/>
	</linearGradient>
	<path class="st8" d="M93.33,68.81c-1.76,0-3.18-1.42-3.18-3.18V37.64c0-1.76,1.42-3.18,3.18-3.18s3.18,1.42,3.18,3.18v27.98
		C96.51,67.38,95.09,68.81,93.33,68.81z"/>
</g>
</svg>
